<svg xmlns="http://www.w3.org/2000/svg" viewBox="0 0 1083.9 414"><defs><style>.cls-1{fill:#64d23c;}</style></defs><g id="Layer_2" data-name="Layer 2"><g id="Color_Text_copy_2" data-name="Color Text copy 2"><path class="cls-1" d="M126,36a90,90,0,0,1,87.38,68.4l.2-.25S231,75.69,233.22,59.8A126,126,0,0,0,1.52,145.59C50.2,28.4,126,36,126,36Z"/><path class="cls-1" d="M249.39,385.91c-.72-2.08-1.63-4.75-2.72-7.91h-.17L224,312.45h0L221.85,306l-11.1-32.37-1.06-3.08-1.61-4.69-2.7-7.85c-.68-2-1.35-3.91-2-5.82,0-.07,0-.14-.08-.22L196,230.78A126.09,126.09,0,0,0,250.36,105.7c-1.82,5-25.5,68.17-75.89,96.11a89.33,89.33,0,0,1-22.89,10.5l11.73,34.08L179,291.88l-.05,0L208.44,378H43.4L88.69,246.39l11.73-34.08s-22.84-9.47-32.14-17.26a90,90,0,0,1-29.86-48.24A163.37,163.37,0,0,0,18.66,192,126.74,126.74,0,0,0,56,230.78C37.64,284.08,8.78,368,2.18,387.14h0l-1,2.75A20.83,20.83,0,0,0,0,396.47v.36c0,.82.09,1.6.19,2.34a0,0,0,0,0,0,0c1.57,9.92,12.19,13.57,12.19,13.57A20.87,20.87,0,0,0,19.18,414H232.82a20.87,20.87,0,0,0,6.79-1.23s10.62-3.65,12.19-13.57a0,0,0,0,0,0,0c.1-.74.16-1.52.19-2.34v-.36a20.83,20.83,0,0,0-1.22-6.57C250.47,389,250,387.67,249.39,385.91Z"/><path class="cls-1" d="M339.34,193.43v-18.1h64.71v18.1Zm16.92,80.24V164.91q0-15.54,7.76-23.9t23.51-8.35a39.32,39.32,0,0,1,10.91,1.67,60.4,60.4,0,0,1,11.11,4.42l-8.06,16.33a41.27,41.27,0,0,0-6.59-2.56,19.36,19.36,0,0,0-5-.79q-5.91,0-8.76,3.84t-2.85,12.49V273.67Z"/><path class="cls-1" d="M434.33,156.65a13.1,13.1,0,0,1-13-13,12.19,12.19,0,0,1,3.83-9,13.08,13.08,0,0,1,18.29,0,12.16,12.16,0,0,1,3.84,9,13.11,13.11,0,0,1-13,13Zm-11,117,.19-98.34h21.83l-.19,98.34Z"/><path class="cls-1" d="M462.06,194.21V175.33h64.7v18.88ZM510.24,276q-15.54,0-23.69-7.77t-8.17-22.32V144.65h21.83v97.16q0,6.88,3.25,10.42t9.54,3.54a13.59,13.59,0,0,0,4.32-.79,19.51,19.51,0,0,0,5.31-2.95l8.07,16.72a45.63,45.63,0,0,1-10.23,5.41A29.78,29.78,0,0,1,510.24,276Z"/><path class="cls-1" d="M584.38,276a50.46,50.46,0,0,1-18.88-3.25A40.61,40.61,0,0,1,552,264.22a31.91,31.91,0,0,1-7.77-11.6l13.77-5.7a26.51,26.51,0,0,0,10,10.82,27.54,27.54,0,0,0,14.75,4.13q9.24,0,15.54-3.64t6.29-10.33a12,12,0,0,0-4.62-9.83q-4.62-3.73-13.67-6.1l-9.44-2.55q-13.38-3.54-20.85-10.72t-7.47-16.23q0-14,9.15-21.73T585,173a46.19,46.19,0,0,1,15.74,2.56,36.32,36.32,0,0,1,12.19,7.18,27.57,27.57,0,0,1,7.47,10.91l-13.76,6.1a17.17,17.17,0,0,0-8.46-9.64,31.93,31.93,0,0,0-14.36-3q-9,0-14.16,3.84a12.62,12.62,0,0,0-5.11,10.72q0,3.93,4.23,7.37t12.49,5.61l9.83,2.55a46.93,46.93,0,0,1,16.13,7A33.16,33.16,0,0,1,617,234.73a26.4,26.4,0,0,1-1.38,27.92,29.85,29.85,0,0,1-12.78,9.93A46.65,46.65,0,0,1,584.38,276Z"/><path class="cls-1" d="M684.68,276a48.48,48.48,0,0,1-25.37-6.59,46,46,0,0,1-17.21-18.19q-6.2-11.61-6.19-26.75t6.19-26.75a46.35,46.35,0,0,1,17.11-18.19A47.61,47.61,0,0,1,684.29,173q13.56,0,23.7,6.79a44,44,0,0,1,15.63,19q5.5,12.19,5.51,28.71H713.39q0-12.58-3.34-21.54a29.79,29.79,0,0,0-9.93-13.86,26,26,0,0,0-16-4.92,31.38,31.38,0,0,0-17,4.62,29.93,29.93,0,0,0-11.31,13.08,46.75,46.75,0,0,0-3.93,19.87q0,11.2,4.32,19.37a32.28,32.28,0,0,0,12,12.78,32.87,32.87,0,0,0,17.31,4.62q10.21,0,17.3-4.92A35.09,35.09,0,0,0,714,243.77l13.77,6.89a44,44,0,0,1-24.48,22.22A52.62,52.62,0,0,1,684.68,276Zm-38.35-48.58.2-13.57h73v13.57Z"/><path class="cls-1" d="M792.85,276a49.93,49.93,0,0,1-25.77-6.59,46.26,46.26,0,0,1-17.5-18.19q-6.3-11.61-6.29-26.75t6.19-26.75a45.63,45.63,0,0,1,17.41-18.19,52.85,52.85,0,0,1,50.93-.1,42.72,42.72,0,0,1,17.11,18.29l-14.36,6.49A29.11,29.11,0,0,0,809.17,192a33,33,0,0,0-17.11-4.42,30.81,30.81,0,0,0-17,4.72,32.58,32.58,0,0,0-11.61,13.07,45.67,45.67,0,0,0,0,38.35,31.58,31.58,0,0,0,29,17.8,30.53,30.53,0,0,0,28.72-18.68l14.35,6.49A45.54,45.54,0,0,1,818.41,269,46.85,46.85,0,0,1,792.85,276Z"/><path class="cls-1" d="M855.38,273.67V175.33h15.74v98.34Zm8.66-53.3q0-15.93,6.09-25.86a38.7,38.7,0,0,1,15.64-14.75,44.16,44.16,0,0,1,20.16-4.82v14.75a48.92,48.92,0,0,0-16.62,2.85,28.59,28.59,0,0,0-13.08,9.34q-5.12,6.5-5.11,17.7Z"/><path class="cls-1" d="M964.92,276a48.48,48.48,0,0,1-25.37-6.59,46,46,0,0,1-17.2-18.19q-6.2-11.61-6.2-26.75t6.2-26.75a46.28,46.28,0,0,1,17.11-18.19A47.55,47.55,0,0,1,964.53,173q13.58,0,23.7,6.79a44,44,0,0,1,15.63,19q5.5,12.19,5.51,28.71H993.64q0-12.58-3.35-21.54a29.79,29.79,0,0,0-9.93-13.86,26,26,0,0,0-16-4.92,31.38,31.38,0,0,0-17,4.62A30.06,30.06,0,0,0,936,204.83a46.75,46.75,0,0,0-3.93,19.87q0,11.2,4.33,19.37a32.19,32.19,0,0,0,12,12.78,32.9,32.9,0,0,0,17.31,4.62q10.23,0,17.31-4.92a35.18,35.18,0,0,0,11.21-12.78l13.76,6.89a44,44,0,0,1-24.48,22.22A52.62,52.62,0,0,1,964.92,276Zm-38.35-48.58.2-13.57h73v13.57Z"/><path class="cls-1" d="M1019,189.3v-14h62.34v14ZM1066.2,276q-14.35,0-22.22-7.48t-7.87-21V144.65h15.74V245.94q0,7.47,4,11.5t11.31,4a15.77,15.77,0,0,0,4.62-.69,21.72,21.72,0,0,0,6-3.44l6.09,12.79a38.13,38.13,0,0,1-9.24,4.62A28.49,28.49,0,0,1,1066.2,276Z"/></g></g></svg>